             Ninja(2009)1080p BDRip In[Hindi-Eng(640kbps)]-DGrea8 


Summary:-


Casey, a Westerner studies Ninjitsu in Japan. And in their Master's possession is an Ninja armor with some legendary weapons which goes to a deserving person. Masazuka, another student thinks he is that person but the Master has an affinity for Casey. One day Masazuka attacks Casey and Casey defends himself scarring Masazuka. Masazuka would be banished. He would then become an assassin, who works for a group criminals called The Ring. Masazuka would return demanding the armor but the Master still refuses. The Master tells Casey and his daughter, Namiko to take the armor to America were it can be kept from Masazuka. After killing the Master, Masazuka follows them to Anmerica and tries to get it. Casey is erroneously arrested for crimes committed by Masazuka. He eventually abducts Namiko and demands turn the armor to him. Casey tells him if he wants he'll have to fight him for it.


Cast:-

Scott Adkins	 ...	Casey Bowman
Tsuyoshi Ihara	 ...	Masazuka
Mika Hijii	 ...	Namiko Takeda
Todd Jensen	 ...	Det. Traxler
Togo Igawa	 ...	Sensei Takeda
Garrick Hagon	 ...	Professor Garrison
Miles Anderson	 ...	Temple
Valentin Ganev	 ...	Klimitov
Atanas Srebrev	 ...	Detective Vukovich
Fumio Demura	 ...	Shihan Dai
Masaki Onishi	 ...	Ryuu
Nikolai Sotirov	 ...	Adamovich
Kenji Motomiya	 ...	Akira
Asen Asenov	 ...	Big armed man
Ivailo Dimitrov	 ...	Bodyguard



Video & Audio Info.:-

Director:Isaac Florentine
Writers: Boaz Davidson (story), Boaz Davidson
Stars: Scott Adkins, Tsuyoshi Ihara, Mika Hijii
Release Date:22 October 2009 (Malaysia)
Filming Locations: New Boyana Film Studios, Sofia, Bulgaria
Genres: Action | Crime | Drama | Thriller

Box Office
Budget: $10,000,000 (estimated)

Video
ID : 1
Format : AVC
Format/Info : Advanced Video Codec
Format profile : Main@L4.0
Format settings, CABAC : Yes
Format settings, ReFrames : 4 frames
Format settings, GOP : M=4, N=16
Muxing mode : Header stripping
Codec ID : V_MPEG4/ISO/AVC
Duration : 1h 26mn
Bit rate : 2 585 Kbps
Width : 1 920 pixels
Height : 798 pixels
Display aspect ratio : 2.40:1
Frame rate mode : Variable
Frame rate : 23.976 fps
Color space : YUV
Chroma subsampling : 4:2:0
Bit depth : 8 bits
Scan type : Progressive
Bits/(Pixel*Frame) : 0.070
Stream size : 1.57 GiB (76%)


Audio #1
ID : 2
Format : AC-3
Format/Info : Audio Coding 3
Mode extension : CM (complete main)
Muxing mode : Header stripping
Codec ID : A_AC3
Duration : 1h 26mn
Bit rate mode : Constant
Bit rate : 640 Kbps
Channel(s) : 6 channels
Channel positions : Front: L C R, Side: L R, LFE
Sampling rate : 48.0 KHz
Bit depth : 16 bits
Compression mode : Lossy
Stream size : 397 MiB (19%)
Language : English

Audio #2
ID : 3
Duration : 1h 26mn
Bit rate mode : Constant
Bit rate : 128 Kbps
Channel(s) : 2 channels
Channel positions : Front: L R
Sampling rate : 48.0 KHz
Bit depth : 16 bits
Compression mode : Lossy
Language : Hindi



Subtitle Languages : English




Screen Shoots:-

   
http://www.shotpix.com/images/57645219753440019803.jpg
 
http://www.shotpix.com/images/76162060131452972427.jpg
 
http://www.shotpix.com/images/51931478601763683325.jpg
 
http://www.shotpix.com/images/99885214484177902562.jpg
 
http://www.shotpix.com/images/23780606858027482133.jpg


Note:--

 Check The Sample Video In This Torrent		